<?xml version="1.0" encoding="UTF-8" standalone="no"?>
<!DOCTYPE svg PUBLIC "-//W3C//DTD SVG 1.1//EN" "http://www.w3.org/Graphics/SVG/1.1/DTD/svg11.dtd">
<svg width="100%" height="100%" viewBox="0 0 23 17" version="1.1" xmlns="http://www.w3.org/2000/svg" xmlns:xlink="http://www.w3.org/1999/xlink" xml:space="preserve" xmlns:serif="http://www.serif.com/" style="fill-rule:evenodd;clip-rule:evenodd;stroke-linecap:round;stroke-linejoin:round;stroke-miterlimit:1.5;">
    <g transform="matrix(0.24,0,0,0.24,-119.5,-113.26)">
        <rect id="Artboard1" x="0" y="0" width="1000" height="1000" style="fill:none;"/>
        <g id="Artboard11" serif:id="Artboard1">
            <g>
                <g transform="matrix(0.333333,0,0,0.340206,356.667,369.897)">
                    <path d="M703,335.1C703,319.039 689.692,306 673.3,306L459.7,306C443.308,306 430,319.039 430,335.1L430,470.9C430,486.961 443.308,500 459.7,500L673.3,500C689.692,500 703,486.961 703,470.9L703,335.1Z" style="fill:none;stroke:white;stroke-width:12.37px;"/>
                </g>
                <g transform="matrix(1.11726,0.655695,-0.50615,0.862445,178.722,-208.611)">
                    <path d="M518,434.5C518,432.568 516.789,431 515.298,431L498.702,431C497.211,431 496,432.568 496,434.5C496,436.432 497.211,438 498.702,438L515.298,438C516.789,438 518,436.432 518,434.5Z" style="fill:white;"/>
                </g>
                <g transform="matrix(0.998316,-0.825571,0.637283,0.77063,-256.808,595.576)">
                    <path d="M518,434.5C518,432.568 516.789,431 515.298,431L498.702,431C497.211,431 496,432.568 496,434.5C496,436.432 497.211,438 498.702,438L515.298,438C516.789,438 518,436.432 518,434.5Z" style="fill:white;"/>
                </g>
                <g transform="matrix(1.29545,0,1.11022e-16,1,-100.045,87.7004)">
                    <path d="M518,434.5C518,432.568 516.789,431 515.298,431L498.702,431C497.211,431 496,432.568 496,434.5C496,436.432 497.211,438 498.702,438L515.298,438C516.789,438 518,436.432 518,434.5Z" style="fill:white;"/>
                </g>
            </g>
        </g>
    </g>
</svg>
